<?xml version="1.0" encoding="iso-8859-1"?>
<!-- Uploaded to: SVG Repo, www.svgrepo.com, Generator: SVG Repo Mixer Tools -->
<!DOCTYPE svg PUBLIC "-//W3C//DTD SVG 1.1//EN" "http://www.w3.org/Graphics/SVG/1.1/DTD/svg11.dtd">
<svg fill="#000000" height="800px" width="800px" version="1.1" id="Capa_1" xmlns="http://www.w3.org/2000/svg" xmlns:xlink="http://www.w3.org/1999/xlink" 
	 viewBox="0 0 195.589 195.589" xml:space="preserve">
<path d="M173.437,169.09c0,2.762-2.238,5-5,5h-6.754h-18.792H17.083C7.663,174.09,0,166.427,0,157.007v-20.23
	c0-9.42,7.663-17.083,17.083-17.083h125.808h18.792h6.754c2.762,0,5,2.238,5,5s-2.238,5-5,5h-1.754v34.396h1.754
	C171.198,164.09,173.437,166.329,173.437,169.09z M195.589,106.609c0,2.762-2.238,5-5,5h-7.78h-17.767h-104.4
	c-8.76,0-15.886-7.126-15.886-15.885V81.169c0-8.76,7.126-15.886,15.886-15.886h104.4h17.767h7.78c2.762,0,5,2.238,5,5s-2.238,5-5,5
	h-2.78v26.325h2.78C193.351,101.609,195.589,103.847,195.589,106.609z M165.042,101.609h12.767V75.284h-12.767h-104.4
	c-3.245,0-5.886,2.641-5.886,5.886v14.555c0,3.245,2.641,5.885,5.886,5.885H165.042z M152.676,21.499H45.496h-23.3H15.68
	c-2.762,0-5,2.238-5,5s2.238,5,5,5h1.517v17.186h-1.518c-2.762,0-5,2.238-5,5s2.238,5,5,5h6.508c0.003,0,0.006,0.001,0.01,0.001
	h130.479c9.42,0,17.084-7.664,17.084-17.084v-3.019C169.76,29.163,162.096,21.499,152.676,21.499z"/>
</svg>